<svg xmlns="http://www.w3.org/2000/svg" width="50" height="49.457" viewBox="0 0 50 49.457">
  <g id="_x36_6" transform="translate(-1.8 -2.1)">
    <path id="Path_67" data-name="Path 67" d="M45.753,16.984a9.994,9.994,0,0,0-12.636-9.07A10.1,10.1,0,0,0,24.048,2.1,10,10,0,0,0,14.2,10.55a7.976,7.976,0,0,0-6.822,6.667A8.064,8.064,0,0,0,9.862,32.953h3.953a.775.775,0,1,0,0-1.55H9.862A6.551,6.551,0,0,1,3.35,24.891a6.471,6.471,0,0,1,4.884-6.279.946.946,0,0,0,.62-.7A6.485,6.485,0,0,1,14.978,12.1a.7.7,0,0,0,.7-.7A8.416,8.416,0,0,1,31.955,9.232a.806.806,0,0,0,1.008.465A8.456,8.456,0,0,1,44.281,17.6v.155a.835.835,0,0,0,.62.775,6.416,6.416,0,0,1,5.349,6.357A6.551,6.551,0,0,1,43.738,31.4H39.784a.775.775,0,1,0,0,1.55h3.953A8.056,8.056,0,0,0,51.8,24.891a8.252,8.252,0,0,0-6.047-7.907Z" fill="#00cccf"/>
    <path id="Path_68" data-name="Path 68" d="M25.159,11.009A3.875,3.875,0,0,1,31.9,10a.775.775,0,1,0,1.24-.93A5.326,5.326,0,0,0,28.8,6.9a5.545,5.545,0,0,0-5.116,3.566.785.785,0,1,0,1.473.543Z" transform="translate(-4.909 -1.079)" fill="#00cccf"/>
    <path id="Path_69" data-name="Path 69" d="M8.05,30.775A.732.732,0,0,0,7.275,30a.732.732,0,0,0-.775.775,4.863,4.863,0,0,0,4.884,4.884.775.775,0,1,0,0-1.55A3.358,3.358,0,0,1,8.05,30.775Z" transform="translate(-1.057 -6.272)" fill="#00cccf"/>
    <path id="Path_70" data-name="Path 70" d="M16.95,21.2V38.56H10.439a3.11,3.11,0,0,0-3.1,3.1v3.256a2.7,2.7,0,1,0,3.488,2.558,2.673,2.673,0,0,0-1.938-2.558V41.661a1.555,1.555,0,0,1,1.55-1.55H16.95v1.163c0,2.636,4.574,4.109,9.457,4.264v3.256a3.071,3.071,0,0,0-2.326,2.946,3.1,3.1,0,1,0,6.2,0,3.162,3.162,0,0,0-2.326-3.023V45.46c5.194-.078,10.31-1.55,10.31-4.341V39.956H44.78a1.555,1.555,0,0,1,1.55,1.55v3.256a2.7,2.7,0,1,0,3.488,2.558,2.673,2.673,0,0,0-1.938-2.558V41.506a3.11,3.11,0,0,0-3.1-3.1H38.268V21.041c0-2.868-5.349-4.341-10.62-4.341s-10.7,1.628-10.7,4.5ZM9.2,47.475a1.163,1.163,0,1,1-1.163-1.163A1.142,1.142,0,0,1,9.2,47.475Zm38.992,0a1.163,1.163,0,1,1-1.163-1.163A1.142,1.142,0,0,1,48.191,47.475ZM36.64,34.762c0,1.163-3.566,2.791-9.07,2.791-5.581,0-9.07-1.628-9.07-2.791V29.878c1.938,1.318,5.581,1.938,9.07,1.938,3.566,0,7.132-.7,9.07-1.938Zm0-7.132c0,1.163-3.566,2.791-9.07,2.791-5.581,0-9.07-1.628-9.07-2.791V23.522c1.938,1.318,5.5,1.938,9.07,1.938s7.132-.7,9.07-1.938ZM28.733,51.739a1.55,1.55,0,1,1-1.55-1.55A1.555,1.555,0,0,1,28.733,51.739ZM36.64,41.2c0,1.163-3.566,2.791-9.07,2.791-5.581,0-9.07-1.628-9.07-2.791V37.088c1.938,1.318,5.581,1.938,9.07,1.938,3.566,0,7.132-.7,9.07-1.938Zm-9.07-22.791c5.581,0,9.07,1.628,9.07,2.791s-3.566,2.791-9.07,2.791c-5.581,0-9.07-1.628-9.07-2.791S21.989,18.405,27.571,18.405Z" transform="translate(-0.809 -3.282)" fill="#00cccf"/>
    <path id="Path_71" data-name="Path 71" d="M26.818,29.3a7.929,7.929,0,0,1-1.628-.62.763.763,0,0,0-.62,1.4q.814.349,1.86.7a.8.8,0,0,0,.93-.543A.712.712,0,0,0,26.818,29.3Z" transform="translate(-5.018 -5.963)" fill="#00cccf"/>
    <path id="Path_72" data-name="Path 72" d="M26.818,38a7.929,7.929,0,0,1-1.628-.62.763.763,0,1,0-.62,1.4q.814.349,1.86.7a.8.8,0,0,0,.93-.543A.688.688,0,0,0,26.818,38Z" transform="translate(-5.018 -7.918)" fill="#00cccf"/>
    <path id="Path_73" data-name="Path 73" d="M26.818,46.6a7.929,7.929,0,0,1-1.628-.62.763.763,0,1,0-.62,1.4q.814.349,1.86.7a.8.8,0,0,0,.93-.543A.712.712,0,0,0,26.818,46.6Z" transform="translate(-5.018 -9.852)" fill="#00cccf"/>
  </g>
</svg>
