<svg xmlns="http://www.w3.org/2000/svg" width="59.96" height="45.569" viewBox="0 0 59.96 45.569">
  <g id="Group_16" data-name="Group 16" transform="translate(-7 -13)">
    <path id="Path_13" data-name="Path 13" d="M32.608,39.4H14.2a1.2,1.2,0,0,1,0-2.4H32.608a1.2,1.2,0,1,1,0,2.4Z" transform="translate(1.195 4.781)" fill="#00cccf"/>
    <path id="Path_14" data-name="Path 14" d="M32.608,27.4H14.2a1.2,1.2,0,0,1,0-2.4H32.608a1.2,1.2,0,1,1,0,2.4Z" transform="translate(1.195 2.39)" fill="#00cccf"/>
    <path id="Path_15" data-name="Path 15" d="M32.183,33.4H8.2a1.2,1.2,0,1,1,0-2.4H32.183a1.2,1.2,0,1,1,0,2.4Z" transform="translate(0 3.585)" fill="#00cccf"/>
    <path id="Path_16" data-name="Path 16" d="M38.8,37.457a4.681,4.681,0,1,1,0-9.359,4.681,4.681,0,1,1,0,9.359Zm0-6.96a2.284,2.284,0,1,0,0,4.562,2.284,2.284,0,1,0,0-4.562Z" transform="translate(5.378 3.007)" fill="#00cccf"/>
    <path id="Path_17" data-name="Path 17" d="M40.32,32.4a1.2,1.2,0,0,1-.848-2.047l6.784-6.784a1.2,1.2,0,0,1,1.7,1.7l-6.784,6.784A1.2,1.2,0,0,1,40.32,32.4Z" transform="translate(6.398 2.036)" fill="#00cccf"/>
    <path id="Path_18" data-name="Path 18" d="M34.664,37.216a1.2,1.2,0,0,1-.848-2.047l1.7-1.7a1.2,1.2,0,0,1,1.7,1.7l-1.7,1.7A1.2,1.2,0,0,1,34.664,37.216Z" transform="translate(5.272 4.008)" fill="#00cccf"/>
    <path id="Path_19" data-name="Path 19" d="M38.2,52A1.2,1.2,0,0,1,37,50.8V47.2a1.2,1.2,0,0,1,2.4,0v3.6A1.2,1.2,0,0,1,38.2,52Z" transform="translate(5.976 6.573)" fill="#00cccf"/>
    <path id="Path_20" data-name="Path 20" d="M51.35,46.549A1.2,1.2,0,0,1,50.5,46.2l-2.543-2.545a1.2,1.2,0,0,1,1.7-1.7L52.2,44.5a1.2,1.2,0,0,1-.848,2.047Z" transform="translate(8.089 5.698)" fill="#00cccf"/>
    <path id="Path_21" data-name="Path 21" d="M48.805,23.215a1.2,1.2,0,0,1-.848-2.047L50.5,18.623a1.2,1.2,0,0,1,1.7,1.7l-2.543,2.545A1.2,1.2,0,0,1,48.805,23.215Z" transform="translate(8.088 1.05)" fill="#00cccf"/>
    <path id="Path_22" data-name="Path 22" d="M38.2,19A1.2,1.2,0,0,1,37,17.8V14.2a1.2,1.2,0,0,1,2.4,0v3.6A1.2,1.2,0,0,1,38.2,19Z" transform="translate(5.976)" fill="#00cccf"/>
    <path id="Path_23" data-name="Path 23" d="M56.8,33.4H53.2a1.2,1.2,0,0,1,0-2.4h3.6a1.2,1.2,0,1,1,0,2.4Z" transform="translate(8.964 3.585)" fill="#00cccf"/>
    <path id="Path_24" data-name="Path 24" d="M33.137,21.4H20.2a1.2,1.2,0,0,1,0-2.4H33.137a1.2,1.2,0,0,1,0,2.4Z" transform="translate(2.39 1.195)" fill="#00cccf"/>
    <path id="Path_25" data-name="Path 25" d="M33.137,45.4H20.2a1.2,1.2,0,0,1,0-2.4H33.137a1.2,1.2,0,0,1,0,2.4Z" transform="translate(2.39 5.976)" fill="#00cccf"/>
    <path id="Path_26" data-name="Path 26" d="M39.767,58.542A22.574,22.574,0,0,1,29.4,56.033,1.2,1.2,0,1,1,30.5,53.9a20.388,20.388,0,1,0,0-36.243,1.2,1.2,0,0,1-1.1-2.132A22.779,22.779,0,1,1,39.767,58.542Z" transform="translate(4.333 0.005)" fill="#00cccf"/>
  </g>
</svg>
